<?xml version="1.0" encoding="utf-8"?>
<!-- Generator: Adobe Illustrator 24.2.3, SVG Export Plug-In . SVG Version: 6.00 Build 0)  -->
<svg version="1.1" xmlns="http://www.w3.org/2000/svg" xmlns:xlink="http://www.w3.org/1999/xlink" x="0px" y="0px"
	 viewBox="0 0 1920 1920" style="enable-background:new 0 0 1920 1920;" xml:space="preserve">
<style type="text/css">
	.st0{display:none;}
	.st1{display:inline;}
	.st2{fill:#5055BC;}
	.st3{fill:#FFFFFF;}
</style>
<g id="Ebene_2" class="st0">
	<g class="st1">
		<path class="st2" d="M1283,1909H637c-345.73,0-626-280.27-626-626V637C11,291.27,291.27,11,637,11h646
			c345.73,0,626,280.27,626,626v646C1909,1628.73,1628.73,1909,1283,1909z"/>
	</g>
	<g class="st1">
		<path class="st2" d="M1283,1909H637c-345.73,0-626-280.27-626-626V637C11,291.27,291.27,11,637,11h646
			c345.73,0,626,280.27,626,626v646C1909,1628.73,1628.73,1909,1283,1909z"/>
	</g>
</g>
<g id="Ebene_1">
	<polygon points="191.5,436.4 691.63,936.53 691.63,1783.32 906.49,833.61 	"/>
	<polygon class="st3" points="224,403.9 724.13,904.03 724.13,1750.82 938.99,801.11 	"/>
	<polygon points="1659.39,1508.88 1159.26,1008.75 1159.26,161.96 944.4,1111.66 	"/>
	<polygon class="st3" points="1728,1483.6 1227.87,983.47 1227.87,136.68 1013.01,1086.39 	"/>
</g>
</svg>
